<svg width="30" height="29" viewBox="0 0 30 29" fill="none" xmlns="http://www.w3.org/2000/svg">
<path d="M24.8476 17.3387C24.8735 17.2789 24.8875 17.2158 24.9068 17.1541C24.9248 17.0955 24.9481 17.0396 24.9607 16.9791C24.986 16.8562 24.9993 16.7314 24.9993 16.6066C24.9993 16.6046 25 16.6033 25 16.6021C25 16.4753 24.986 16.3486 24.9607 16.2238C24.9488 16.1665 24.9268 16.1137 24.9101 16.0584C24.8902 15.9934 24.8749 15.9272 24.8476 15.8641C24.819 15.7972 24.7797 15.7367 24.7438 15.6737C24.7171 15.6267 24.6958 15.5778 24.6646 15.5328C24.5907 15.426 24.5068 15.3263 24.413 15.2355L19.3268 10.3189C18.5468 9.56485 17.2835 9.56485 16.5035 10.3189C15.7235 11.0723 15.7235 12.2947 16.5035 13.0481L18.1834 14.6719H13.1218C10.8449 14.6719 8.99334 12.8821 8.99334 10.6811V7.97186C8.99334 6.9058 8.0995 6.04175 6.99667 6.04175C5.89384 6.04175 5 6.9058 5 7.97186V10.6811C5 15.0104 8.64393 18.5322 13.1218 18.5322H18.184L16.5035 20.1567C15.7235 20.9107 15.7235 22.1325 16.5035 22.8859C16.8935 23.2622 17.404 23.4508 17.9151 23.4508C18.4263 23.4508 18.9374 23.2622 19.3268 22.8852L24.413 17.9679C24.5068 17.8772 24.5913 17.7775 24.6652 17.6701C24.6945 17.6276 24.7138 17.5819 24.7398 17.5382C24.777 17.4725 24.8176 17.4088 24.8476 17.3387Z" fill="#FCC26B"/>
</svg>
