<svg width="25" height="25" viewBox="0 0 25 25" fill="none" xmlns="http://www.w3.org/2000/svg">
<mask id="path-1-inside-1_93_72" fill="white">
<path d="M12.486 0.137451C7.14097 0.137451 2.7926 4.48582 2.7926 9.83085V22.6765C2.7926 23.8666 3.76074 24.8347 4.95087 24.8347C6.141 24.8347 7.10914 23.8666 7.10914 22.6765V21.6158C7.10914 20.7284 7.83112 20.0064 8.71857 20.0064C9.60603 20.0064 10.328 20.7284 10.328 21.6158V22.6765C10.3277 23.8666 11.2961 24.8347 12.486 24.8347C13.6761 24.8347 14.6443 23.8666 14.6443 22.6765V21.6158C14.6443 20.7284 15.3663 20.0064 16.2534 20.0064C17.1409 20.0064 17.8629 20.7284 17.8629 21.6158V22.6765C17.8629 23.8666 18.831 24.8347 20.0211 24.8347C21.211 24.8347 22.1791 23.8666 22.1791 22.6765V9.83085C22.1794 4.48582 17.831 0.137451 12.486 0.137451ZM21.6306 22.6765C21.6306 23.5639 20.9086 24.2859 20.0214 24.2859C19.134 24.2859 18.412 23.5639 18.412 22.6765V21.6158C18.412 20.4257 17.4438 19.4576 16.2537 19.4576C15.0639 19.4576 14.0957 20.4257 14.0957 21.6158V22.6765C14.0954 23.5639 13.3735 24.2859 12.486 24.2859C11.5985 24.2859 10.8766 23.5639 10.8766 22.6765V21.6158C10.8766 20.4257 9.90843 19.4576 8.7183 19.4576C7.52844 19.4576 6.56003 20.4257 6.56003 21.6158V22.6765C6.56003 23.5639 5.83805 24.2859 4.9506 24.2859C4.06314 24.2859 3.34116 23.5639 3.34116 22.6765V9.83085C3.34143 4.7885 7.44365 0.686279 12.486 0.686279C17.5284 0.686279 21.6306 4.7885 21.6306 9.83085V22.6765Z"/>
</mask>
<path d="M12.486 0.137451C7.14097 0.137451 2.7926 4.48582 2.7926 9.83085V22.6765C2.7926 23.8666 3.76074 24.8347 4.95087 24.8347C6.141 24.8347 7.10914 23.8666 7.10914 22.6765V21.6158C7.10914 20.7284 7.83112 20.0064 8.71857 20.0064C9.60603 20.0064 10.328 20.7284 10.328 21.6158V22.6765C10.3277 23.8666 11.2961 24.8347 12.486 24.8347C13.6761 24.8347 14.6443 23.8666 14.6443 22.6765V21.6158C14.6443 20.7284 15.3663 20.0064 16.2534 20.0064C17.1409 20.0064 17.8629 20.7284 17.8629 21.6158V22.6765C17.8629 23.8666 18.831 24.8347 20.0211 24.8347C21.211 24.8347 22.1791 23.8666 22.1791 22.6765V9.83085C22.1794 4.48582 17.831 0.137451 12.486 0.137451ZM21.6306 22.6765C21.6306 23.5639 20.9086 24.2859 20.0214 24.2859C19.134 24.2859 18.412 23.5639 18.412 22.6765V21.6158C18.412 20.4257 17.4438 19.4576 16.2537 19.4576C15.0639 19.4576 14.0957 20.4257 14.0957 21.6158V22.6765C14.0954 23.5639 13.3735 24.2859 12.486 24.2859C11.5985 24.2859 10.8766 23.5639 10.8766 22.6765V21.6158C10.8766 20.4257 9.90843 19.4576 8.7183 19.4576C7.52844 19.4576 6.56003 20.4257 6.56003 21.6158V22.6765C6.56003 23.5639 5.83805 24.2859 4.9506 24.2859C4.06314 24.2859 3.34116 23.5639 3.34116 22.6765V9.83085C3.34143 4.7885 7.44365 0.686279 12.486 0.686279C17.5284 0.686279 21.6306 4.7885 21.6306 9.83085V22.6765Z" fill="#535353"/>
<path d="M10.328 22.6765L13.138 22.6771V22.6765H10.328ZM22.1791 9.83085L19.3691 9.83071V9.83085H22.1791ZM14.0957 22.6765L16.9057 22.6773V22.6765H14.0957ZM3.34116 9.83085L0.531157 9.8307V9.83085H3.34116ZM12.486 -2.67255C5.58905 -2.67255 -0.0173974 2.9339 -0.0173974 9.83085H5.6026C5.6026 6.03774 8.69289 2.94745 12.486 2.94745V-2.67255ZM-0.0173974 9.83085V22.6765H5.6026V9.83085H-0.0173974ZM-0.0173974 22.6765C-0.0173974 25.4185 2.20882 27.6447 4.95087 27.6447V22.0247C5.31265 22.0247 5.6026 22.3147 5.6026 22.6765H-0.0173974ZM4.95087 27.6447C7.69292 27.6447 9.91914 25.4185 9.91914 22.6765H4.29914C4.29914 22.3147 4.58908 22.0247 4.95087 22.0247V27.6447ZM9.91914 22.6765V21.6158H4.29914V22.6765H9.91914ZM9.91914 21.6158C9.91914 22.2803 9.38304 22.8164 8.71857 22.8164V17.1964C6.2792 17.1964 4.29914 19.1765 4.29914 21.6158H9.91914ZM8.71857 22.8164C8.05411 22.8164 7.51801 22.2803 7.51801 21.6158H13.138C13.138 19.1765 11.1579 17.1964 8.71857 17.1964V22.8164ZM7.51801 21.6158V22.6765H13.138V21.6158H7.51801ZM7.51801 22.6758C7.51738 25.4187 9.74458 27.6447 12.486 27.6447V22.0247C12.8477 22.0247 13.1381 22.3144 13.138 22.6771L7.51801 22.6758ZM12.486 27.6447C15.2281 27.6447 17.4543 25.4185 17.4543 22.6765H11.8343C11.8343 22.3147 12.1242 22.0247 12.486 22.0247V27.6447ZM17.4543 22.6765V21.6158H11.8343V22.6765H17.4543ZM17.4543 21.6158C17.4543 22.28 16.9185 22.8164 16.2534 22.8164V17.1964C13.814 17.1964 11.8343 19.1768 11.8343 21.6158H17.4543ZM16.2534 22.8164C15.589 22.8164 15.0529 22.2803 15.0529 21.6158H20.6729C20.6729 19.1765 18.6928 17.1964 16.2534 17.1964V22.8164ZM15.0529 21.6158V22.6765H20.6729V21.6158H15.0529ZM15.0529 22.6765C15.0529 25.4185 17.2791 27.6447 20.0211 27.6447V22.0247C20.3829 22.0247 20.6729 22.3147 20.6729 22.6765H15.0529ZM20.0211 27.6447C22.7632 27.6447 24.9891 25.4183 24.9891 22.6765H19.3691C19.3691 22.3149 19.6588 22.0247 20.0211 22.0247V27.6447ZM24.9891 22.6765V9.83085H19.3691V22.6765H24.9891ZM24.9891 9.831C24.9895 2.9339 19.3829 -2.67255 12.486 -2.67255V2.94745C16.2792 2.94745 19.3693 6.03773 19.3691 9.83071L24.9891 9.831ZM18.8206 22.6765C18.8206 22.0123 19.3564 21.4759 20.0214 21.4759V27.0959C22.4608 27.0959 24.4406 25.1155 24.4406 22.6765H18.8206ZM20.0214 21.4759C20.6859 21.4759 21.222 22.012 21.222 22.6765H15.602C15.602 25.1158 17.582 27.0959 20.0214 27.0959V21.4759ZM21.222 22.6765V21.6158H15.602V22.6765H21.222ZM21.222 21.6158C21.222 18.8738 18.9958 16.6476 16.2537 16.6476V22.2676C15.8919 22.2676 15.602 21.9776 15.602 21.6158H21.222ZM16.2537 16.6476C13.5117 16.6476 11.2857 18.874 11.2857 21.6158H16.9057C16.9057 21.9774 16.616 22.2676 16.2537 22.2676V16.6476ZM11.2857 21.6158V22.6765H16.9057V21.6158H11.2857ZM11.2857 22.6756C11.2859 22.012 11.8214 21.4759 12.486 21.4759V27.0959C14.9255 27.0959 16.905 25.1159 16.9057 22.6773L11.2857 22.6756ZM12.486 21.4759C13.1505 21.4759 13.6866 22.012 13.6866 22.6765H8.06657C8.06657 25.1158 10.0466 27.0959 12.486 27.0959V21.4759ZM13.6866 22.6765V21.6158H8.06657V22.6765H13.6866ZM13.6866 21.6158C13.6866 18.8738 11.4604 16.6476 8.7183 16.6476V22.2676C8.35651 22.2676 8.06657 21.9776 8.06657 21.6158H13.6866ZM8.7183 16.6476C5.97675 16.6476 3.75003 18.8736 3.75003 21.6158H9.37003C9.37003 21.9779 9.08013 22.2676 8.7183 22.2676V16.6476ZM3.75003 21.6158V22.6765H9.37003V21.6158H3.75003ZM3.75003 22.6765C3.75003 22.012 4.28613 21.4759 4.9506 21.4759V27.0959C7.38997 27.0959 9.37003 25.1158 9.37003 22.6765H3.75003ZM4.9506 21.4759C5.61506 21.4759 6.15116 22.012 6.15116 22.6765H0.531157C0.531157 25.1158 2.51122 27.0959 4.9506 27.0959V21.4759ZM6.15116 22.6765V9.83085H0.531157V22.6765H6.15116ZM6.15116 9.83101C6.15135 6.34042 8.9956 3.49628 12.486 3.49628V-2.12372C5.8917 -2.12372 0.531515 3.23657 0.531157 9.8307L6.15116 9.83101ZM12.486 3.49628C15.9764 3.49628 18.8206 6.34041 18.8206 9.83085H24.4406C24.4406 3.23658 19.0803 -2.12372 12.486 -2.12372V3.49628ZM18.8206 9.83085V22.6765H24.4406V9.83085H18.8206Z" fill="#535353" mask="url(#path-1-inside-1_93_72)"/>
<mask id="path-3-inside-2_93_72" fill="white">
<path d="M8.64424 6.56494C6.76286 6.56494 5.23218 8.09562 5.23218 9.97701C5.23218 11.8584 6.76286 13.3891 8.64424 13.3891C10.5256 13.3891 12.0563 11.8584 12.0563 9.97701C12.0563 8.09562 10.5256 6.56494 8.64424 6.56494ZM9.93865 11.8825C9.41315 11.8825 8.98589 11.455 8.98589 10.9298C8.98589 10.4045 9.41342 9.97701 9.93865 9.97701C10.4639 9.97701 10.8914 10.4045 10.8914 10.9298C10.8914 11.455 10.4639 11.8825 9.93865 11.8825ZM11.4172 10.677C11.2965 9.96932 10.6804 9.42818 9.93865 9.42818C9.11047 9.42818 8.43706 10.1019 8.43706 10.9298C8.43706 11.7577 9.11075 12.4314 9.93865 12.4314C10.0051 12.4314 10.0701 12.4256 10.1346 12.4171C9.69991 12.6836 9.1906 12.8402 8.64452 12.8402C7.06581 12.8402 5.78128 11.5557 5.78128 9.97701C5.78128 8.3983 7.06581 7.11377 8.64452 7.11377C10.2232 7.11377 11.5078 8.3983 11.5078 9.97701C11.5075 10.2188 11.474 10.4526 11.4172 10.677Z"/>
</mask>
<path d="M8.64424 6.56494C6.76286 6.56494 5.23218 8.09562 5.23218 9.97701C5.23218 11.8584 6.76286 13.3891 8.64424 13.3891C10.5256 13.3891 12.0563 11.8584 12.0563 9.97701C12.0563 8.09562 10.5256 6.56494 8.64424 6.56494ZM9.93865 11.8825C9.41315 11.8825 8.98589 11.455 8.98589 10.9298C8.98589 10.4045 9.41342 9.97701 9.93865 9.97701C10.4639 9.97701 10.8914 10.4045 10.8914 10.9298C10.8914 11.455 10.4639 11.8825 9.93865 11.8825ZM11.4172 10.677C11.2965 9.96932 10.6804 9.42818 9.93865 9.42818C9.11047 9.42818 8.43706 10.1019 8.43706 10.9298C8.43706 11.7577 9.11075 12.4314 9.93865 12.4314C10.0051 12.4314 10.0701 12.4256 10.1346 12.4171C9.69991 12.6836 9.1906 12.8402 8.64452 12.8402C7.06581 12.8402 5.78128 11.5557 5.78128 9.97701C5.78128 8.3983 7.06581 7.11377 8.64452 7.11377C10.2232 7.11377 11.5078 8.3983 11.5078 9.97701C11.5075 10.2188 11.474 10.4526 11.4172 10.677Z" fill="#535353"/>
<path d="M11.4172 10.677L8.64722 11.1496L14.1413 11.3664L11.4172 10.677ZM10.1346 12.4171L11.6032 14.8128L9.76709 9.63123L10.1346 12.4171ZM11.5078 9.97701L14.3178 9.9802V9.97701H11.5078ZM8.64424 3.75494C5.21094 3.75494 2.42218 6.5437 2.42218 9.97701H8.04218C8.04218 9.64754 8.31478 9.37494 8.64424 9.37494V3.75494ZM2.42218 9.97701C2.42218 13.4103 5.21094 16.1991 8.64424 16.1991V10.5791C8.31478 10.5791 8.04218 10.3065 8.04218 9.97701H2.42218ZM8.64424 16.1991C12.0775 16.1991 14.8663 13.4103 14.8663 9.97701H9.24631C9.24631 10.3065 8.9737 10.5791 8.64424 10.5791V16.1991ZM14.8663 9.97701C14.8663 6.5437 12.0775 3.75494 8.64424 3.75494V9.37494C8.9737 9.37494 9.24631 9.64754 9.24631 9.97701H14.8663ZM9.93865 9.07254C10.9656 9.07254 11.7959 9.90361 11.7959 10.9298H6.17589C6.17589 13.0064 7.8607 14.6925 9.93865 14.6925V9.07254ZM11.7959 10.9298C11.7959 11.9565 10.9653 12.787 9.93865 12.787V7.16701C7.8615 7.16701 6.17589 8.85262 6.17589 10.9298H11.7959ZM9.93865 12.787C8.91196 12.787 8.08142 11.9565 8.08142 10.9298H13.7014C13.7014 8.85262 12.0158 7.16701 9.93865 7.16701V12.787ZM8.08142 10.9298C8.08142 9.90308 8.91196 9.07254 9.93865 9.07254V14.6925C12.0158 14.6925 13.7014 13.0069 13.7014 10.9298H8.08142ZM14.1872 10.2045C13.8413 8.17694 12.0804 6.61818 9.93865 6.61818V12.2382C9.28035 12.2382 8.75165 11.7617 8.64722 11.1496L14.1872 10.2045ZM9.93865 6.61818C7.55822 6.61818 5.62706 8.55028 5.62706 10.9298H11.2471C11.2471 11.6534 10.6627 12.2382 9.93865 12.2382V6.61818ZM5.62706 10.9298C5.62706 13.3096 7.55882 15.2414 9.93865 15.2414V9.62137C10.6627 9.62137 11.2471 10.2058 11.2471 10.9298H5.62706ZM9.93865 15.2414C10.1659 15.2414 10.3603 15.2217 10.5021 15.203L9.76709 9.63123C9.77994 9.62954 9.84424 9.62137 9.93865 9.62137V15.2414ZM8.66601 10.0214C8.6563 10.0273 8.65028 10.0293 8.64866 10.0298C8.6478 10.03 8.64743 10.0301 8.64731 10.0301C8.64724 10.0301 8.64644 10.0302 8.64452 10.0302V15.6502C9.73702 15.6502 10.7511 15.3351 11.6032 14.8128L8.66601 10.0214ZM8.64452 10.0302C8.63405 10.0302 8.63004 10.0287 8.6274 10.0275C8.62286 10.0256 8.61554 10.0214 8.60785 10.0137C8.60017 10.006 8.59591 9.99867 8.59398 9.99412C8.59286 9.99148 8.59128 9.98747 8.59128 9.97701H2.97128C2.97128 13.1076 5.51389 15.6502 8.64452 15.6502V10.0302ZM8.59128 9.97701C8.59128 9.96654 8.59286 9.96253 8.59398 9.95989C8.59591 9.95535 8.60017 9.94803 8.60785 9.94034C8.61554 9.93266 8.62286 9.9284 8.6274 9.92647C8.63004 9.92535 8.63405 9.92377 8.64452 9.92377V4.30377C5.51389 4.30377 2.97128 6.84638 2.97128 9.97701H8.59128ZM8.64452 9.92377C8.65498 9.92377 8.65899 9.92535 8.66163 9.92647C8.66618 9.9284 8.67349 9.93266 8.68118 9.94034C8.68887 9.94803 8.69312 9.95535 8.69505 9.95989C8.69617 9.96253 8.69775 9.96654 8.69775 9.97701H14.3178C14.3178 6.84638 11.7751 4.30377 8.64452 4.30377V9.92377ZM8.69776 9.97382C8.69776 9.96571 8.69834 9.96196 8.69814 9.96352C8.69791 9.96524 8.69676 9.97308 8.69307 9.98768L14.1413 11.3664C14.2477 10.9461 14.3172 10.481 14.3178 9.9802L8.69776 9.97382Z" fill="#535353" mask="url(#path-3-inside-2_93_72)"/>
<mask id="path-5-inside-3_93_72" fill="white">
<path d="M16.3278 6.56494C14.4467 6.56494 12.9158 8.09562 12.9158 9.97701C12.9158 11.8584 14.4467 13.3891 16.3278 13.3891C18.2089 13.3891 19.7399 11.8584 19.7399 9.97701C19.7399 8.09562 18.2089 6.56494 16.3278 6.56494ZM17.6222 11.8825C17.097 11.8825 16.6695 11.455 16.6695 10.9298C16.6695 10.4045 17.097 9.97701 17.6222 9.97701C18.1475 9.97701 18.575 10.4045 18.575 10.9298C18.575 11.455 18.1475 11.8825 17.6222 11.8825ZM19.1008 10.6773C18.98 9.96932 18.364 9.42818 17.6222 9.42818C16.7941 9.42818 16.1207 10.1019 16.1207 10.9298C16.1207 11.7577 16.7941 12.4314 17.6222 12.4314C17.6887 12.4314 17.7537 12.4256 17.8182 12.4171C17.3835 12.6836 16.8742 12.8402 16.3281 12.8402C14.7494 12.8402 13.4649 11.5557 13.4649 9.97701C13.4649 8.3983 14.7494 7.11377 16.3281 7.11377C17.9068 7.11377 19.1913 8.3983 19.1913 9.97701C19.1911 10.219 19.1576 10.4526 19.1008 10.6773Z"/>
</mask>
<path d="M16.3278 6.56494C14.4467 6.56494 12.9158 8.09562 12.9158 9.97701C12.9158 11.8584 14.4467 13.3891 16.3278 13.3891C18.2089 13.3891 19.7399 11.8584 19.7399 9.97701C19.7399 8.09562 18.2089 6.56494 16.3278 6.56494ZM17.6222 11.8825C17.097 11.8825 16.6695 11.455 16.6695 10.9298C16.6695 10.4045 17.097 9.97701 17.6222 9.97701C18.1475 9.97701 18.575 10.4045 18.575 10.9298C18.575 11.455 18.1475 11.8825 17.6222 11.8825ZM19.1008 10.6773C18.98 9.96932 18.364 9.42818 17.6222 9.42818C16.7941 9.42818 16.1207 10.1019 16.1207 10.9298C16.1207 11.7577 16.7941 12.4314 17.6222 12.4314C17.6887 12.4314 17.7537 12.4256 17.8182 12.4171C17.3835 12.6836 16.8742 12.8402 16.3281 12.8402C14.7494 12.8402 13.4649 11.5557 13.4649 9.97701C13.4649 8.3983 14.7494 7.11377 16.3281 7.11377C17.9068 7.11377 19.1913 8.3983 19.1913 9.97701C19.1911 10.219 19.1576 10.4526 19.1008 10.6773Z" fill="#535353"/>
<path d="M19.1008 10.6773L16.3308 11.1497L21.8251 11.3659L19.1008 10.6773ZM17.8182 12.4171L19.2868 14.8128L17.4507 9.63123L17.8182 12.4171ZM19.1913 9.97701L22.0013 9.98019V9.97701H19.1913ZM16.3278 3.75494C12.895 3.75494 10.1058 6.54356 10.1058 9.97701H15.7258C15.7258 9.64769 15.9985 9.37494 16.3278 9.37494V3.75494ZM10.1058 9.97701C10.1058 13.4105 12.895 16.1991 16.3278 16.1991V10.5791C15.9985 10.5791 15.7258 10.3063 15.7258 9.97701H10.1058ZM16.3278 16.1991C19.7607 16.1991 22.5499 13.4105 22.5499 9.97701H16.9299C16.9299 10.3063 16.6572 10.5791 16.3278 10.5791V16.1991ZM22.5499 9.97701C22.5499 6.54356 19.7607 3.75494 16.3278 3.75494V9.37494C16.6572 9.37494 16.9299 9.64769 16.9299 9.97701H22.5499ZM17.6222 9.07254C18.6489 9.07254 19.4795 9.90308 19.4795 10.9298H13.8595C13.8595 13.0069 15.5451 14.6925 17.6222 14.6925V9.07254ZM19.4795 10.9298C19.4795 11.9565 18.6489 12.787 17.6222 12.787V7.16701C15.5451 7.16701 13.8595 8.85262 13.8595 10.9298H19.4795ZM17.6222 12.787C16.5956 12.787 15.765 11.9565 15.765 10.9298H21.385C21.385 8.85262 19.6994 7.16701 17.6222 7.16701V12.787ZM15.765 10.9298C15.765 9.90308 16.5956 9.07254 17.6222 9.07254V14.6925C19.6994 14.6925 21.385 13.0069 21.385 10.9298H15.765ZM21.8708 10.2049C21.525 8.17725 19.7643 6.61818 17.6222 6.61818V12.2382C16.9637 12.2382 16.4351 11.7614 16.3308 11.1497L21.8708 10.2049ZM17.6222 6.61818C15.2418 6.61818 13.3107 8.55028 13.3107 10.9298H18.9307C18.9307 11.6534 18.3463 12.2382 17.6222 12.2382V6.61818ZM13.3107 10.9298C13.3107 13.3093 15.2418 15.2414 17.6222 15.2414V9.62137C18.3463 9.62137 18.9307 10.2061 18.9307 10.9298H13.3107ZM17.6222 15.2414C17.8495 15.2414 18.0438 15.2217 18.1857 15.203L17.4507 9.63123C17.4635 9.62954 17.5278 9.62137 17.6222 9.62137V15.2414ZM16.3496 10.0214C16.3399 10.0273 16.3339 10.0293 16.3322 10.0298C16.3314 10.03 16.331 10.0301 16.3309 10.0301C16.3308 10.0301 16.33 10.0302 16.3281 10.0302V15.6502C17.4206 15.6502 18.4347 15.3351 19.2868 14.8128L16.3496 10.0214ZM16.3281 10.0302C16.3176 10.0302 16.3136 10.0287 16.311 10.0275C16.3064 10.0256 16.2991 10.0214 16.2914 10.0137C16.2838 10.006 16.2795 9.99867 16.2776 9.99412C16.2765 9.99148 16.2749 9.98747 16.2749 9.97701H10.6549C10.6549 13.1076 13.1975 15.6502 16.3281 15.6502V10.0302ZM16.2749 9.97701C16.2749 9.96654 16.2765 9.96253 16.2776 9.95989C16.2795 9.95534 16.2838 9.94803 16.2914 9.94034C16.2991 9.93266 16.3064 9.9284 16.311 9.92647C16.3136 9.92535 16.3176 9.92377 16.3281 9.92377V4.30377C13.1975 4.30377 10.6549 6.84638 10.6549 9.97701H16.2749ZM16.3281 9.92377C16.3386 9.92377 16.3426 9.92535 16.3452 9.92647C16.3498 9.9284 16.3571 9.93266 16.3648 9.94034C16.3725 9.94803 16.3767 9.95534 16.3786 9.95989C16.3798 9.96253 16.3813 9.96654 16.3813 9.97701H22.0013C22.0013 6.84638 19.4587 4.30377 16.3281 4.30377V9.92377ZM16.3813 9.97382C16.3814 9.96593 16.3819 9.96219 16.3817 9.96367C16.3815 9.96534 16.3803 9.97342 16.3765 9.98874L21.8251 11.3659C21.9312 10.9461 22.0008 10.4815 22.0013 9.98019L16.3813 9.97382Z" fill="#535353" mask="url(#path-5-inside-3_93_72)"/>
</svg>
