<svg width="25" height="25" viewBox="0 0 25 25" fill="none" xmlns="http://www.w3.org/2000/svg">
<path d="M15.3108 12.2114C15.3108 12.2114 15.3108 12.2114 15.3108 12.2114C15.3107 12.2115 15.3105 12.2115 15.3104 12.2116C15.1818 12.2911 15.0127 12.2527 14.9327 12.1244C14.8523 11.996 14.891 11.8266 15.0197 11.7462L15.0197 11.7462L15.1652 11.9788L15.1655 11.9791L15.3108 12.2114ZM15.3108 12.2114L16.1151 11.708V11.3867V11.3841V11.0606L15.0215 11.7451L15.1662 11.9782L15.1664 11.9786L15.3108 12.2114ZM24.723 23.1325L24.561 23.3532L24.723 23.1325Z" fill="#535353" stroke="#535353" stroke-width="4"/>
<mask id="path-2-inside-1_93_69" fill="white">
<path d="M9.88261 8.57383V7.30604C9.88261 6.42078 9.16227 5.70044 8.27674 5.70044C7.39148 5.70044 6.67114 6.42078 6.67114 7.30604V8.57383C6.67114 9.45909 7.39148 10.1794 8.27674 10.1794C9.16227 10.1794 9.88261 9.45909 9.88261 8.57383ZM9.33378 8.57383C9.33378 9.15669 8.85959 9.6306 8.27674 9.6306C7.69388 9.6306 7.21997 9.15641 7.21997 8.57383V7.30604C7.21997 6.72318 7.69416 6.24927 8.27674 6.24927C8.85932 6.24927 9.33378 6.72346 9.33378 7.30604V8.57383Z"/>
</mask>
<path d="M9.88261 8.57383V7.30604C9.88261 6.42078 9.16227 5.70044 8.27674 5.70044C7.39148 5.70044 6.67114 6.42078 6.67114 7.30604V8.57383C6.67114 9.45909 7.39148 10.1794 8.27674 10.1794C9.16227 10.1794 9.88261 9.45909 9.88261 8.57383ZM9.33378 8.57383C9.33378 9.15669 8.85959 9.6306 8.27674 9.6306C7.69388 9.6306 7.21997 9.15641 7.21997 8.57383V7.30604C7.21997 6.72318 7.69416 6.24927 8.27674 6.24927C8.85932 6.24927 9.33378 6.72346 9.33378 7.30604V8.57383Z" fill="#535353"/>
<path d="M13.8826 8.57383V7.30604H5.88261V8.57383H13.8826ZM13.8826 7.30604C13.8826 4.21119 11.371 1.70044 8.27674 1.70044V9.70044C6.95358 9.70044 5.88261 8.63036 5.88261 7.30604H13.8826ZM8.27674 1.70044C5.18234 1.70044 2.67114 4.21164 2.67114 7.30604H10.6711C10.6711 8.62991 9.60062 9.70044 8.27674 9.70044V1.70044ZM2.67114 7.30604V8.57383H10.6711V7.30604H2.67114ZM2.67114 8.57383C2.67114 11.6682 5.18234 14.1794 8.27674 14.1794V6.17943C9.60062 6.17943 10.6711 7.24995 10.6711 8.57383H2.67114ZM8.27674 14.1794C11.371 14.1794 13.8826 11.6687 13.8826 8.57383H5.88261C5.88261 7.24951 6.95358 6.17943 8.27674 6.17943V14.1794ZM5.33378 8.57383C5.33378 6.9462 6.65181 5.6306 8.27674 5.6306V13.6306C11.0674 13.6306 13.3338 11.3672 13.3338 8.57383H5.33378ZM8.27674 5.6306C9.9037 5.6306 11.22 6.94795 11.22 8.57383H3.21997C3.21997 11.3649 5.48407 13.6306 8.27674 13.6306V5.6306ZM11.22 8.57383V7.30604H3.21997V8.57383H11.22ZM11.22 7.30604C11.22 8.933 9.90262 10.2493 8.27674 10.2493V2.24927C5.48569 2.24927 3.21997 4.51337 3.21997 7.30604H11.22ZM8.27674 10.2493C6.65153 10.2493 5.33378 8.93395 5.33378 7.30604H13.3338C13.3338 4.51296 11.0671 2.24927 8.27674 2.24927V10.2493ZM5.33378 7.30604V8.57383H13.3338V7.30604H5.33378Z" fill="#535353" mask="url(#path-2-inside-1_93_69)"/>
<mask id="path-4-inside-2_93_69" fill="white">
<path d="M12.4921 5.7002C11.6068 5.7002 10.8865 6.42053 10.8865 7.30579V8.57359C10.8865 9.45885 11.6068 10.1792 12.4923 10.1792C13.3776 10.1792 14.0979 9.45885 14.0979 8.57359V7.30579C14.0979 6.42053 13.3776 5.7002 12.4921 5.7002ZM13.5491 8.57386C13.5491 9.15672 13.0749 9.63063 12.4923 9.63063C11.9095 9.63063 11.4356 9.15644 11.4356 8.57386V7.30607C11.4356 6.72321 11.9098 6.2493 12.4926 6.2493C13.0755 6.2493 13.5494 6.72349 13.5494 7.30607L13.5491 8.57386Z"/>
</mask>
<path d="M12.4921 5.7002C11.6068 5.7002 10.8865 6.42053 10.8865 7.30579V8.57359C10.8865 9.45885 11.6068 10.1792 12.4923 10.1792C13.3776 10.1792 14.0979 9.45885 14.0979 8.57359V7.30579C14.0979 6.42053 13.3776 5.7002 12.4921 5.7002ZM13.5491 8.57386C13.5491 9.15672 13.0749 9.63063 12.4923 9.63063C11.9095 9.63063 11.4356 9.15644 11.4356 8.57386V7.30607C11.4356 6.72321 11.9098 6.2493 12.4926 6.2493C13.0755 6.2493 13.5494 6.72349 13.5494 7.30607L13.5491 8.57386Z" fill="#535353"/>
<path d="M14.0979 7.30579H10.0979H14.0979ZM13.5491 8.57386L9.54911 8.57299V8.57386H13.5491ZM13.5494 7.30607L17.5494 7.30693V7.30607H13.5494ZM12.4921 1.7002C9.39767 1.7002 6.88647 4.21139 6.88647 7.30579H14.8865C14.8865 8.62967 13.816 9.7002 12.4921 9.7002V1.7002ZM6.88647 7.30579V8.57359H14.8865V7.30579H6.88647ZM6.88647 8.57359C6.88647 11.6684 9.39812 14.1792 12.4923 14.1792V6.17918C13.8155 6.17918 14.8865 7.24926 14.8865 8.57359H6.88647ZM12.4923 14.1792C15.5867 14.1792 18.0979 11.668 18.0979 8.57359H10.0979C10.0979 7.2497 11.1685 6.17918 12.4923 6.17918V14.1792ZM18.0979 8.57359V7.30579H10.0979V8.57359H18.0979ZM18.0979 7.30579C18.0979 4.21095 15.5863 1.7002 12.4921 1.7002V9.7002C11.1689 9.7002 10.0979 8.63012 10.0979 7.30579H18.0979ZM9.54911 8.57386C9.54911 6.9469 10.8665 5.63063 12.4923 5.63063V13.6306C15.2834 13.6306 17.5491 11.3665 17.5491 8.57386H9.54911ZM12.4923 5.63063C14.1193 5.63063 15.4356 6.94798 15.4356 8.57386H7.43558C7.43558 11.3649 9.69967 13.6306 12.4923 13.6306V5.63063ZM15.4356 8.57386V7.30607H7.43558V8.57386H15.4356ZM15.4356 7.30607C15.4356 8.9337 14.1176 10.2493 12.4926 10.2493V2.2493C9.70197 2.2493 7.43558 4.51272 7.43558 7.30607H15.4356ZM12.4926 10.2493C10.8657 10.2493 9.54939 8.93195 9.54939 7.30607H17.5494C17.5494 4.51502 15.2853 2.2493 12.4926 2.2493V10.2493ZM9.54939 7.3052L9.54911 8.57299L17.5491 8.57473L17.5494 7.30693L9.54939 7.3052Z" fill="#535353" mask="url(#path-4-inside-2_93_69)"/>
<mask id="path-6-inside-3_93_69" fill="white">
<path d="M10.3845 11.3203C9.49927 11.3203 8.77893 12.0406 8.77893 12.9259V16.6525C8.77893 17.538 9.49927 18.2583 10.3845 18.2583C11.2701 18.2583 11.9904 17.538 11.9904 16.6525V12.9259C11.9904 12.0406 11.2701 11.3203 10.3845 11.3203ZM11.4416 16.6527C11.4416 17.2356 10.9674 17.7098 10.3845 17.7098C9.80167 17.7098 9.32776 17.2356 9.32776 16.6527V12.9262C9.32776 12.3433 9.80195 11.8694 10.3845 11.8694C10.9671 11.8694 11.4416 12.3436 11.4416 12.9262V16.6527Z"/>
</mask>
<path d="M10.3845 11.3203C9.49927 11.3203 8.77893 12.0406 8.77893 12.9259V16.6525C8.77893 17.538 9.49927 18.2583 10.3845 18.2583C11.2701 18.2583 11.9904 17.538 11.9904 16.6525V12.9259C11.9904 12.0406 11.2701 11.3203 10.3845 11.3203ZM11.4416 16.6527C11.4416 17.2356 10.9674 17.7098 10.3845 17.7098C9.80167 17.7098 9.32776 17.2356 9.32776 16.6527V12.9262C9.32776 12.3433 9.80195 11.8694 10.3845 11.8694C10.9671 11.8694 11.4416 12.3436 11.4416 12.9262V16.6527Z" fill="#535353"/>
<path d="M10.3845 7.32031C7.29013 7.32031 4.77893 9.83151 4.77893 12.9259H12.7789C12.7789 14.2498 11.7084 15.3203 10.3845 15.3203V7.32031ZM4.77893 12.9259V16.6525H12.7789V12.9259H4.77893ZM4.77893 16.6525C4.77893 19.7467 7.28968 22.2583 10.3845 22.2583V14.2583C11.7089 14.2583 12.7789 15.3293 12.7789 16.6525H4.77893ZM10.3845 22.2583C13.4792 22.2583 15.9904 19.7471 15.9904 16.6525H7.9904C7.9904 15.3288 9.06092 14.2583 10.3845 14.2583V22.2583ZM15.9904 16.6525V12.9259H7.9904V16.6525H15.9904ZM15.9904 12.9259C15.9904 9.83107 13.4788 7.32031 10.3845 7.32031V15.3203C9.06137 15.3203 7.9904 14.2502 7.9904 12.9259H15.9904ZM7.44157 16.6527C7.44157 15.0264 8.75824 13.7098 10.3845 13.7098V21.7098C13.1765 21.7098 15.4416 19.4447 15.4416 16.6527H7.44157ZM10.3845 13.7098C12.0122 13.7098 13.3278 15.0278 13.3278 16.6527H5.32776C5.32776 19.4434 7.59117 21.7098 10.3845 21.7098V13.7098ZM13.3278 16.6527V12.9262H5.32776V16.6527H13.3278ZM13.3278 12.9262C13.3278 14.5531 12.0104 15.8694 10.3845 15.8694V7.86941C7.59348 7.86941 5.32776 10.1335 5.32776 12.9262H13.3278ZM10.3845 15.8694C8.75932 15.8694 7.44157 14.5541 7.44157 12.9262H15.4416C15.4416 10.1331 13.1749 7.86941 10.3845 7.86941V15.8694ZM7.44157 12.9262V16.6527H15.4416V12.9262H7.44157Z" fill="#535353" mask="url(#path-6-inside-3_93_69)"/>
</svg>
