<svg width="25" height="25" viewBox="0 0 25 25" fill="none" xmlns="http://www.w3.org/2000/svg">
<g clip-path="url(#clip0_93_75)">
<mask id="path-1-inside-1_93_75" fill="white">
<path d="M12.4859 24.669C10.7558 24.669 10.0593 23.691 9.4995 22.9048C9.02805 22.2426 8.65567 21.7198 7.77782 21.6672C6.84674 21.6112 6.34593 22.0072 5.76555 22.4649C5.19394 22.9163 4.54577 23.4303 3.48791 23.3639C1.20478 23.1215 0.0846247 21.5673 0.139233 18.7427L0.143898 18.5023L0.355746 18.3882C4.28536 16.2733 6.11542 12.5797 6.11542 6.76482C6.11542 3.20238 8.51188 0.304016 11.458 0.303467H13.5139C16.46 0.303741 18.8565 3.2021 18.8565 6.76455C18.8565 12.5797 20.6868 16.273 24.6161 18.3879L24.8277 18.5021L24.8327 18.7424C24.8873 21.567 23.7668 23.1213 21.5029 23.3622C20.4245 23.4278 19.7782 22.916 19.2063 22.4646C18.626 22.0066 18.1235 21.6117 17.1941 21.6669C16.3162 21.7193 15.9438 22.2423 15.4727 22.9042C14.9129 23.6907 14.2161 24.669 12.4859 24.669ZM7.60522 20.8387C7.67711 20.8387 7.75093 20.8409 7.82667 20.8453C9.09748 20.921 9.66744 21.7209 10.1699 22.427C10.7121 23.1882 11.1803 23.8457 12.4859 23.8457C13.7919 23.8457 14.26 23.1882 14.8017 22.427C15.3045 21.7215 15.8739 20.9216 17.1447 20.8456C18.3919 20.7717 19.0941 21.3277 19.7162 21.8186C20.2598 22.2478 20.6904 22.587 21.4346 22.5425C23.1711 22.357 23.9993 21.2273 24.0113 18.9952C19.9344 16.7044 18.0332 12.8104 18.0332 6.76455C18.0332 3.65571 16.0053 1.12643 13.5125 1.12643H11.4591C8.96659 1.12643 6.93867 3.65571 6.93867 6.76455C6.93867 12.8099 5.03752 16.7044 0.960554 18.9949C0.972354 21.227 1.80108 22.357 3.55596 22.5439C4.28261 22.5864 4.71152 22.2478 5.25541 21.8184C5.83991 21.3576 6.49768 20.8387 7.60522 20.8387Z"/>
</mask>
<path d="M9.4995 22.9048L7.21041 24.5345L7.21048 24.5346L9.4995 22.9048ZM7.77782 21.6672L7.60918 24.4721L7.60947 24.4721L7.77782 21.6672ZM5.76555 22.4649L4.02546 20.2585L4.024 20.2596L5.76555 22.4649ZM3.48791 23.3639L3.19135 26.1582L3.25149 26.1645L3.31186 26.1683L3.48791 23.3639ZM0.139233 18.7427L-2.67024 18.6882L-2.67024 18.6884L0.139233 18.7427ZM0.143898 18.5023L-1.18909 16.0286L-2.63373 16.8071L-2.66557 18.4478L0.143898 18.5023ZM0.355746 18.3882L-0.97597 15.9138L-0.97724 15.9145L0.355746 18.3882ZM11.458 0.303467V-2.50653H11.4575L11.458 0.303467ZM13.5139 0.303467L13.5142 -2.50653H13.5139V0.303467ZM24.6161 18.3879L25.9505 15.9149L25.9479 15.9135L24.6161 18.3879ZM24.8277 18.5021L27.6371 18.4443L27.6035 16.8068L26.162 16.0291L24.8277 18.5021ZM24.8327 18.7424L27.6421 18.6881L27.6421 18.6847L24.8327 18.7424ZM21.5029 23.3622L21.6735 26.167L21.737 26.1632L21.8003 26.1564L21.5029 23.3622ZM19.2063 22.4646L20.9474 20.2589L20.9471 20.2587L19.2063 22.4646ZM17.1941 21.6669L17.0276 18.8618L17.0266 18.8619L17.1941 21.6669ZM15.4727 22.9042L13.1835 21.2746L13.1834 21.2747L15.4727 22.9042ZM7.82667 20.8453L7.99384 18.0403L7.9893 18.04L7.82667 20.8453ZM10.1699 22.427L7.88042 24.0562L7.88118 24.0573L10.1699 22.427ZM14.8017 22.427L12.5133 20.7963L12.5122 20.7978L14.8017 22.427ZM17.1447 20.8456L16.9787 18.0405L16.9769 18.0406L17.1447 20.8456ZM19.7162 21.8186L21.4574 19.6131L21.457 19.6128L19.7162 21.8186ZM21.4346 22.5425L21.6021 25.3475L21.6677 25.3436L21.7331 25.3366L21.4346 22.5425ZM24.0113 18.9952L26.8213 19.0104L26.8302 17.3559L25.3878 16.5454L24.0113 18.9952ZM0.960554 18.9949L-0.415819 16.5451L-1.85815 17.3554L-1.84941 19.0098L0.960554 18.9949ZM3.55596 22.5439L3.25841 25.3381L3.32495 25.3452L3.39176 25.3491L3.55596 22.5439ZM5.25541 21.8184L3.51585 19.6115L3.51403 19.613L5.25541 21.8184ZM12.4859 21.859C12.3226 21.859 12.2526 21.8367 12.243 21.8335C12.236 21.8313 12.2379 21.8322 12.232 21.8278C12.2196 21.8186 12.1795 21.7861 12.1045 21.6975C12.0206 21.5983 11.9371 21.4835 11.7885 21.2749L7.21048 24.5346C7.46335 24.8898 8.01046 25.6913 8.87566 26.3355C9.83172 27.0474 11.0297 27.479 12.4859 27.479V21.859ZM11.7886 21.275C11.6042 21.016 11.1867 20.4003 10.5993 19.9065C9.8859 19.3068 9.0014 18.9255 7.94617 18.8622L7.60947 24.4721C7.55682 24.4689 7.44344 24.4535 7.30085 24.3961C7.1572 24.3382 7.04903 24.264 6.98287 24.2083C6.92658 24.161 6.91751 24.141 6.96503 24.2001C6.98763 24.2282 7.0177 24.2674 7.05997 24.3251C7.10342 24.3844 7.14934 24.4488 7.21041 24.5345L11.7886 21.275ZM7.94647 18.8622C5.87267 18.7375 4.62878 19.7827 4.02546 20.2585L7.50563 24.6713C7.58114 24.6117 7.63746 24.5673 7.69107 24.5262C7.74292 24.4864 7.78063 24.4587 7.80999 24.438C7.86877 24.3967 7.87481 24.3978 7.84581 24.4116C7.8102 24.4285 7.75438 24.4493 7.68928 24.462C7.62583 24.4744 7.59355 24.4711 7.60918 24.4721L7.94647 18.8622ZM4.024 20.2596C3.87105 20.3804 3.78516 20.4474 3.70337 20.5048C3.62964 20.5565 3.5952 20.5742 3.58708 20.5782C3.58311 20.5801 3.6008 20.5715 3.63191 20.5649C3.66433 20.5581 3.67913 20.5603 3.66396 20.5594L3.31186 26.1683C5.53462 26.3079 6.94192 25.1164 7.50709 24.6701L4.024 20.2596ZM3.78447 20.5695C3.50159 20.5395 3.35937 20.4801 3.3031 20.4504C3.25774 20.4266 3.23731 20.4073 3.21339 20.3743C3.14811 20.2841 2.92777 19.8802 2.94871 18.797L-2.67024 18.6884C-2.70391 20.4298 -2.39148 22.2153 -1.33955 23.669C-0.220924 25.2148 1.42903 25.9711 3.19135 26.1582L3.78447 20.5695ZM2.9487 18.7972L2.95337 18.5569L-2.66557 18.4478L-2.67024 18.6882L2.9487 18.7972ZM1.47688 20.976L1.68873 20.8619L-0.97724 15.9145L-1.18909 16.0286L1.47688 20.976ZM1.68746 20.8626C4.13103 19.5474 6.00293 17.682 7.22703 15.2116C8.42729 12.7893 8.92542 9.94788 8.92542 6.76482H3.30542C3.30542 9.3966 2.88853 11.3094 2.19134 12.7163C1.51801 14.0752 0.510069 15.114 -0.97597 15.9138L1.68746 20.8626ZM8.92542 6.76482C8.92542 4.23105 10.54 3.11364 11.4585 3.11347L11.4575 -2.50653C6.4838 -2.50561 3.30542 2.1737 3.30542 6.76482H8.92542ZM11.458 3.11347H13.5139V-2.50653H11.458V3.11347ZM13.5136 3.11347C14.4319 3.11355 16.0465 4.23067 16.0465 6.76455H21.6665C21.6665 2.17353 18.4881 -2.50607 13.5142 -2.50653L13.5136 3.11347ZM16.0465 6.76455C16.0465 9.94778 16.5447 12.7893 17.745 15.2115C18.9691 17.6818 20.841 19.5472 23.2844 20.8623L25.9479 15.9135C24.462 15.1137 23.454 14.075 22.7806 12.7161C22.0834 11.3092 21.6665 9.39642 21.6665 6.76455H16.0465ZM23.2818 20.8609L23.4934 20.9751L26.162 16.0291L25.9505 15.9149L23.2818 20.8609ZM22.0183 18.5598L22.0233 18.8002L27.6421 18.6847L27.6371 18.4443L22.0183 18.5598ZM22.0232 18.7968C22.0441 19.8795 21.8239 20.2862 21.7577 20.3781C21.7333 20.4119 21.7134 20.4301 21.6711 20.4525C21.6181 20.4806 21.481 20.5387 21.2055 20.568L21.8003 26.1564C23.5597 25.9692 25.2036 25.2087 26.3168 23.6643C27.3631 22.2127 27.6758 20.4299 27.6421 18.6881L22.0232 18.7968ZM21.3323 20.5574C21.3056 20.559 21.3122 20.5559 21.3394 20.5615C21.3659 20.567 21.3817 20.5745 21.3784 20.5729C21.371 20.5694 21.3377 20.5525 21.2656 20.502C21.1851 20.4457 21.1003 20.3797 20.9474 20.2589L17.4653 24.6703C18.0467 25.1292 19.4427 26.3027 21.6735 26.167L21.3323 20.5574ZM20.9471 20.2587C20.3393 19.7791 19.0964 18.739 17.0276 18.8618L17.3605 24.4719C17.376 24.471 17.3442 24.4742 17.2815 24.462C17.2171 24.4494 17.1621 24.4289 17.127 24.4123C17.0985 24.3987 17.1047 24.3978 17.1632 24.4388C17.1924 24.4593 17.2299 24.4869 17.2814 24.5264C17.3346 24.5672 17.3908 24.6114 17.4656 24.6705L20.9471 20.2587ZM17.0266 18.8619C15.9708 18.9249 15.086 19.3063 14.3725 19.9062C13.7851 20.4001 13.3676 21.0159 13.1835 21.2746L17.7619 24.5338C17.8229 24.448 17.8688 24.3836 17.9123 24.3244C17.9545 24.2667 17.9846 24.2275 18.0072 24.1995C18.0547 24.1404 18.0455 24.1604 17.9892 24.2078C17.923 24.2635 17.8147 24.3378 17.6708 24.3958C17.528 24.4533 17.4144 24.4687 17.3615 24.4719L17.0266 18.8619ZM13.1834 21.2747C13.0349 21.4833 12.9513 21.5981 12.8674 21.6973C12.7925 21.786 12.7523 21.8185 12.7399 21.8278C12.7339 21.8322 12.7357 21.8313 12.7288 21.8335C12.7192 21.8367 12.6492 21.859 12.4859 21.859V27.479C13.9424 27.479 15.1405 27.0472 16.0965 26.3352C16.9618 25.6909 17.5089 24.8892 17.762 24.5337L13.1834 21.2747ZM7.60522 23.6487C7.62003 23.6487 7.63955 23.6492 7.66404 23.6506L7.9893 18.04C7.86232 18.0326 7.7342 18.0287 7.60522 18.0287V23.6487ZM7.65949 23.6503C7.68949 23.6521 7.66383 23.6539 7.60831 23.6316C7.55378 23.6096 7.51776 23.5834 7.50785 23.5753C7.50394 23.5721 7.53178 23.5941 7.59801 23.6749C7.67113 23.764 7.74676 23.8684 7.88042 24.0562L12.4594 20.7978C11.9744 20.1163 10.7145 18.2024 7.99384 18.0403L7.65949 23.6503ZM7.88118 24.0573C8.10144 24.3665 8.59898 25.1056 9.36182 25.6744C10.2514 26.3378 11.3019 26.6557 12.4859 26.6557V21.0357C12.3969 21.0357 12.41 21.0248 12.4855 21.0483C12.5222 21.0598 12.5648 21.0767 12.6096 21.0998C12.6543 21.1228 12.692 21.1473 12.7215 21.1692C12.778 21.2114 12.7855 21.2308 12.7358 21.1711C12.711 21.1413 12.6775 21.0988 12.63 21.0345C12.5807 20.968 12.5292 20.8957 12.4586 20.7967L7.88118 24.0573ZM12.4859 26.6557C13.6699 26.6557 14.7206 26.3379 15.6103 25.6744C16.3735 25.1052 16.8709 24.3658 17.0912 24.0562L12.5122 20.7978C12.4418 20.8967 12.3904 20.9689 12.3412 21.0353C12.2938 21.0995 12.2604 21.142 12.2357 21.1717C12.1862 21.2311 12.1938 21.2116 12.2505 21.1693C12.28 21.1473 12.3178 21.1228 12.3625 21.0997C12.4073 21.0766 12.45 21.0597 12.4866 21.0483C12.5621 21.0248 12.5752 21.0357 12.4859 21.0357V26.6557ZM17.0902 24.0577C17.2243 23.8694 17.3 23.765 17.3734 23.6755C17.4398 23.5946 17.4677 23.5724 17.4639 23.5756C17.4541 23.5836 17.4181 23.6098 17.3636 23.6318C17.3081 23.6542 17.2824 23.6523 17.3125 23.6505L16.9769 18.0406C14.2567 18.2033 12.9971 20.1174 12.5133 20.7963L17.0902 24.0577ZM17.3107 23.6506C17.3953 23.6456 17.4344 23.6529 17.4423 23.6545C17.4498 23.656 17.4576 23.6578 17.4757 23.6663C17.498 23.6767 17.543 23.7005 17.6245 23.7571C17.7154 23.8202 17.8097 23.8937 17.9755 24.0245L21.457 19.6128C20.7823 19.0803 19.3498 17.9001 16.9787 18.0405L17.3107 23.6506ZM17.975 24.0241C18.4746 24.4186 19.6776 25.4625 21.6021 25.3475L21.267 19.7375C21.3149 19.7347 21.3999 19.7362 21.5063 19.7586C21.6126 19.7809 21.6958 19.8146 21.7462 19.8395C21.7891 19.8608 21.7931 19.8684 21.7393 19.8301C21.7131 19.8114 21.6787 19.7858 21.6303 19.7486C21.5806 19.7103 21.5277 19.6686 21.4574 19.6131L17.975 24.0241ZM21.7331 25.3366C23.1941 25.1806 24.6437 24.5606 25.6414 23.1902C26.5593 21.9294 26.8137 20.4075 26.8213 19.0104L21.2014 18.98C21.1992 19.3738 21.1608 19.6285 21.1229 19.7787C21.0864 19.9235 21.0601 19.9343 21.0979 19.8825C21.144 19.8191 21.2136 19.7609 21.2752 19.729C21.3232 19.7041 21.2972 19.7312 21.1361 19.7484L21.7331 25.3366ZM25.3878 16.5454C23.8152 15.6618 22.7372 14.5259 22.0181 13.0543C21.2773 11.5383 20.8432 9.51014 20.8432 6.76455H15.2232C15.2232 10.0648 15.7397 13.0066 16.9687 15.5217C18.2194 18.0813 20.1305 20.0378 22.6348 21.4449L25.3878 16.5454ZM20.8432 6.76455C20.8432 2.71491 18.1048 -1.68357 13.5125 -1.68357V3.93643C13.7523 3.93643 14.1256 4.0514 14.5154 4.53748C14.9086 5.0279 15.2232 5.80718 15.2232 6.76455H20.8432ZM13.5125 -1.68357H11.4591V3.93643H13.5125V-1.68357ZM11.4591 -1.68357C6.86699 -1.68357 4.12867 2.71503 4.12867 6.76455H9.74867C9.74867 5.80718 10.0633 5.02787 10.4565 4.53743C10.8463 4.05131 11.2196 3.93643 11.4591 3.93643V-1.68357ZM4.12867 6.76455C4.12867 9.50984 3.69459 11.538 2.95377 13.0541C2.23466 14.5258 1.15668 15.6616 -0.415819 16.5451L2.33693 21.4447C4.8414 20.0377 6.75247 18.081 8.00318 15.5215C9.23217 13.0063 9.74867 10.0646 9.74867 6.76455H4.12867ZM-1.84941 19.0098C-1.84202 20.4068 -1.58759 21.9325 -0.663046 23.1958C0.340652 24.5674 1.79639 25.1824 3.25841 25.3381L3.85352 19.7497C3.68471 19.7317 3.65335 19.7031 3.69769 19.7259C3.756 19.7559 3.82532 19.8127 3.87225 19.8769C3.9108 19.9296 3.88497 19.9202 3.84873 19.7767C3.81109 19.6277 3.7726 19.3739 3.77052 18.9801L-1.84941 19.0098ZM3.39176 25.3491C5.30579 25.4611 6.51373 24.4052 6.99679 24.0237L3.51403 19.613C3.44363 19.6686 3.39029 19.7106 3.3401 19.7493C3.29127 19.787 3.25612 19.8131 3.22919 19.8324C3.17359 19.8721 3.1761 19.8655 3.21755 19.8448C3.26638 19.8204 3.35055 19.7854 3.46034 19.7618C3.57091 19.738 3.66263 19.7353 3.72016 19.7387L3.39176 25.3491ZM6.99496 24.0252C7.14966 23.9032 7.24183 23.8314 7.3308 23.7688C7.41194 23.7117 7.45996 23.6845 7.48736 23.6708C7.51138 23.6589 7.52155 23.6563 7.52559 23.6553C7.52901 23.6545 7.55184 23.6487 7.60522 23.6487V18.0287C5.4527 18.0287 4.12293 19.133 3.51586 19.6115L6.99496 24.0252Z" fill="#535353" mask="url(#path-1-inside-1_93_75)"/>
<mask id="path-3-inside-2_93_75" fill="white">
<path d="M10.7132 5.6657L11.279 4.9717C11.4225 4.79553 11.3962 4.53621 11.2203 4.39241C11.0438 4.2489 10.7851 4.27524 10.641 4.45114L10.1819 5.01424L9.72282 4.45114C9.57902 4.27497 9.32025 4.24835 9.14353 4.39241C8.96736 4.53621 8.94101 4.79553 9.0848 4.9717L9.65065 5.6657L9.0848 6.35969C8.94129 6.53586 8.96763 6.79518 9.14353 6.93898C9.22009 7.00127 9.31202 7.03145 9.4034 7.03145C9.52277 7.03145 9.64132 6.97986 9.72282 6.87998L10.1819 6.31688L10.641 6.87998C10.7225 6.97959 10.8408 7.03145 10.9604 7.03145C11.0518 7.03145 11.1437 7.00127 11.2203 6.93898C11.3965 6.79518 11.4228 6.53586 11.279 6.35969L10.7132 5.6657Z"/>
</mask>
<path d="M10.7132 5.6657L11.279 4.9717C11.4225 4.79553 11.3962 4.53621 11.2203 4.39241C11.0438 4.2489 10.7851 4.27524 10.641 4.45114L10.1819 5.01424L9.72282 4.45114C9.57902 4.27497 9.32025 4.24835 9.14353 4.39241C8.96736 4.53621 8.94101 4.79553 9.0848 4.9717L9.65065 5.6657L9.0848 6.35969C8.94129 6.53586 8.96763 6.79518 9.14353 6.93898C9.22009 7.00127 9.31202 7.03145 9.4034 7.03145C9.52277 7.03145 9.64132 6.97986 9.72282 6.87998L10.1819 6.31688L10.641 6.87998C10.7225 6.97959 10.8408 7.03145 10.9604 7.03145C11.0518 7.03145 11.1437 7.00127 11.2203 6.93898C11.3965 6.79518 11.4228 6.53586 11.279 6.35969L10.7132 5.6657Z" fill="#535353"/>
<path d="M10.7132 5.6657L8.53533 3.89001L7.08754 5.6657L8.53533 7.44139L10.7132 5.6657ZM11.279 4.9717L13.4569 6.74739L13.4576 6.74648L11.279 4.9717ZM11.2203 4.39241L12.9988 2.21683L12.9934 2.21247L11.2203 4.39241ZM10.641 4.45114L8.46709 2.67063L8.46312 2.6755L10.641 4.45114ZM10.1819 5.01424L8.00402 6.78988L10.1819 9.46114L12.3598 6.78988L10.1819 5.01424ZM9.72282 4.45114L11.9007 2.6755L11.8998 2.67433L9.72282 4.45114ZM9.14353 4.39241L7.368 2.21443L7.36672 2.21548L9.14353 4.39241ZM9.0848 4.9717L11.2627 3.19601L11.2617 3.19489L9.0848 4.9717ZM9.65065 5.6657L11.8285 7.44139L13.2763 5.6657L11.8285 3.89001L9.65065 5.6657ZM9.0848 6.35969L6.90696 4.584L6.90621 4.58492L9.0848 6.35969ZM9.14353 6.93898L7.36505 9.11456L7.37009 9.11866L9.14353 6.93898ZM9.72282 6.87998L11.9 8.65644L11.9007 8.65562L9.72282 6.87998ZM10.1819 6.31688L12.3598 4.54124L10.1819 1.86997L8.00402 4.54124L10.1819 6.31688ZM10.641 6.87998L8.46311 8.65562L8.46619 8.65938L10.641 6.87998ZM11.2203 6.93898L12.9937 9.11866L12.9971 9.11591L11.2203 6.93898ZM11.279 6.35969L9.10117 8.13538L9.10209 8.1365L11.279 6.35969ZM12.891 7.44139L13.4569 6.74739L9.10117 3.19601L8.53533 3.89001L12.891 7.44139ZM13.4576 6.74648C14.5806 5.36792 14.3741 3.34117 12.9988 2.21684L9.44182 6.56799C8.41825 5.73125 8.26443 4.22313 9.10042 3.19693L13.4576 6.74648ZM12.9934 2.21247C11.6147 1.09102 9.59113 1.29824 8.46709 2.67063L12.8149 6.23165C11.979 7.25224 10.473 7.40677 9.44718 6.57236L12.9934 2.21247ZM8.46312 2.6755L8.00402 3.2386L12.3598 6.78988L12.8189 6.22678L8.46312 2.6755ZM12.3598 3.2386L11.9007 2.6755L7.54493 6.22678L8.00402 6.78988L12.3598 3.2386ZM11.8998 2.67433C10.7762 1.29773 8.74845 1.08907 7.368 2.21443L10.9191 6.5704C9.89205 7.40763 8.38188 7.2522 7.54588 6.22795L11.8998 2.67433ZM7.36672 2.21548C5.98923 3.33979 5.78198 5.36908 6.90787 6.74851L11.2617 3.19489C12.1 4.22198 11.9455 5.73263 10.9203 6.56935L7.36672 2.21548ZM6.90696 6.74739L7.4728 7.44139L11.8285 3.89001L11.2627 3.19601L6.90696 6.74739ZM7.4728 3.89001L6.90696 4.584L11.2627 8.13538L11.8285 7.44139L7.4728 3.89001ZM6.90621 4.58492C5.78318 5.96347 5.98968 7.99022 7.36506 9.11455L10.922 4.7634C11.9456 5.60015 12.0994 7.10826 11.2634 8.13446L6.90621 4.58492ZM7.37009 9.11866C7.96613 9.60361 8.69006 9.84145 9.4034 9.84145V4.22145C9.93398 4.22145 10.4741 4.39893 10.917 4.75929L7.37009 9.11866ZM9.4034 9.84145C10.329 9.84145 11.2614 9.43919 11.9 8.65644L7.5456 5.10351C8.02127 4.52054 8.71654 4.22145 9.4034 4.22145V9.84145ZM11.9007 8.65562L12.3598 8.09252L8.00402 4.54124L7.54493 5.10434L11.9007 8.65562ZM8.00402 8.09252L8.46312 8.65562L12.8189 5.10434L12.3598 4.54124L8.00402 8.09252ZM8.46619 8.65938C9.10124 9.43556 10.0298 9.84145 10.9604 9.84145V4.22145C11.6517 4.22145 12.3438 4.52362 12.8158 5.10058L8.46619 8.65938ZM10.9604 9.84145C11.6738 9.84145 12.3977 9.6036 12.9937 9.11866L9.44686 4.75929C9.88977 4.39893 10.4298 4.22145 10.9604 4.22145V9.84145ZM12.9971 9.11591C14.3746 7.99161 14.5818 5.96231 13.456 4.58288L9.10209 8.1365C8.26378 7.10941 8.41834 5.59876 9.44348 4.76204L12.9971 9.11591ZM13.4569 4.584L12.891 3.89001L8.53533 7.44139L9.10117 8.13538L13.4569 4.584Z" fill="#535353" mask="url(#path-3-inside-2_93_75)"/>
<path d="M13.9819 4.30931C13.9204 4.32258 13.8612 4.35023 13.8092 4.39279L13.9819 4.30931ZM13.9819 4.30931L14.2723 4.54606L14.2723 4.54611L14.2724 4.54615L14.2724 4.54619L14.3959 4.64688L13.9819 4.30931Z" fill="#535353" stroke="#535353" stroke-width="2.81"/>
<path d="M15.5692 8.70874H9.40259C9.1751 8.70874 8.99097 8.89287 8.99097 9.12036C8.99097 9.34785 9.1751 9.53198 9.40259 9.53198H11.1816V10.3536C11.1816 11.3653 12.0049 12.1886 13.0163 12.1886C14.0278 12.1886 14.8514 11.3653 14.8514 10.3536V9.53198H15.5692C15.7964 9.53198 15.9808 9.34785 15.9808 9.12036C15.9808 8.89287 15.7964 8.70874 15.5692 8.70874ZM14.0281 10.3536C14.0281 10.9115 13.5745 11.3653 13.0163 11.3653C12.4585 11.3653 12.0049 10.9115 12.0049 10.3536V9.53198H14.0281V10.3536Z" fill="#535353"/>
</g>
<defs>
<clipPath id="clip0_93_75">
<rect width="25" height="25" fill="white"/>
</clipPath>
</defs>
</svg>
