<svg width="29" height="30" viewBox="0 0 29 30" fill="none" xmlns="http://www.w3.org/2000/svg">
<path d="M24.0194 17.8387C24.0445 17.7788 24.058 17.7158 24.0766 17.654C24.094 17.5955 24.1165 17.5395 24.1287 17.479C24.1532 17.3561 24.1661 17.2313 24.1661 17.1065C24.1661 17.1046 24.1667 17.1033 24.1667 17.102C24.1667 16.9753 24.1532 16.8485 24.1287 16.7237C24.1172 16.6664 24.0959 16.6137 24.0798 16.5583C24.0605 16.4934 24.0458 16.4271 24.0194 16.364C23.9917 16.2971 23.9537 16.2367 23.919 16.1736C23.8933 16.1266 23.8727 16.0777 23.8424 16.0327C23.771 15.9259 23.69 15.8262 23.5993 15.7355L18.6826 10.8188C17.9286 10.0648 16.7074 10.0648 15.9534 10.8188C15.1994 11.5722 15.1994 12.7946 15.9534 13.548L17.5773 15.1719H12.6844C10.4835 15.1719 8.69361 13.382 8.69361 11.181V8.4718C8.69361 7.40574 7.82956 6.54169 6.76349 6.54169C5.69742 6.54169 4.83337 7.40574 4.83337 8.4718V11.181C4.83337 15.5103 8.35584 19.0321 12.6844 19.0321H17.5779L15.9534 20.6566C15.1994 21.4107 15.1994 22.6324 15.9534 23.3858C16.3304 23.7622 16.8239 23.9507 17.318 23.9507C17.8121 23.9507 18.3062 23.7622 18.6826 23.3852L23.5993 18.4679C23.69 18.3772 23.7717 18.2774 23.8431 18.17C23.8714 18.1275 23.8901 18.0819 23.9151 18.0381C23.9512 17.9725 23.9904 17.9088 24.0194 17.8387Z" fill="black"/>
</svg>
