<svg width="12" height="24" viewBox="0 0 12 24" fill="none" xmlns="http://www.w3.org/2000/svg">
<path d="M9.46526 16.8324C9.46526 16.4662 9.40015 16.1285 9.26995 15.8192C9.14788 15.5018 8.94849 15.2089 8.6718 14.9403C8.39511 14.6718 8.03704 14.4235 7.59758 14.1957C7.15813 13.9597 6.6373 13.744 6.03508 13.5487C5.27825 13.3127 4.59465 13.0401 3.9843 12.7308C3.37395 12.4216 2.85312 12.0513 2.4218 11.62C1.98235 11.1968 1.64462 10.7085 1.40862 10.1552C1.17262 9.60177 1.05461 8.96293 1.05461 8.23865C1.05461 7.55505 1.15634 6.93656 1.35979 6.38318C1.57138 5.82979 1.86842 5.34558 2.2509 4.93054C2.62525 4.52364 3.08098 4.19405 3.61809 3.94177C4.16334 3.68949 4.76555 3.52266 5.42473 3.44128V0.755737H7.24358V3.44128C7.83765 3.52266 8.37883 3.68136 8.86711 3.91736C9.3554 4.14522 9.77857 4.44226 10.1366 4.80847C10.6005 5.29675 10.9545 5.90304 11.1987 6.62732C11.4428 7.34347 11.5689 8.16947 11.5771 9.10535H9.33098C9.33098 8.5601 9.26181 8.05961 9.12346 7.60388C8.99325 7.14001 8.80201 6.74125 8.54973 6.40759C8.28931 6.08207 7.97193 5.82572 7.59758 5.63855C7.22323 5.45138 6.79599 5.35779 6.31584 5.35779C5.79501 5.35779 5.33928 5.43103 4.94866 5.57751C4.56617 5.724 4.25286 5.93152 4.00872 6.20007C3.78085 6.44421 3.60588 6.73718 3.48381 7.07898C3.36988 7.41264 3.31291 7.78699 3.31291 8.20203C3.31291 8.60893 3.37802 8.97107 3.50823 9.28845C3.63844 9.60583 3.84596 9.89473 4.13079 10.1552C4.40748 10.4156 4.76555 10.6597 5.205 10.8876C5.6526 11.1073 6.18971 11.323 6.81633 11.5345C7.58131 11.7868 8.26897 12.0676 8.87932 12.3768C9.48967 12.6861 10.0064 13.0482 10.4296 13.4633C10.8528 13.8783 11.1742 14.3584 11.394 14.9037C11.6218 15.4489 11.7358 16.0837 11.7358 16.808C11.7358 17.516 11.6218 18.1508 11.394 18.7123C11.1742 19.2738 10.8609 19.7539 10.454 20.1527C10.0471 20.5596 9.55071 20.8851 8.96477 21.1293C8.38697 21.3734 7.74407 21.5321 7.03606 21.6053V23.9491H5.21721V21.6176C4.58245 21.5524 3.97209 21.406 3.38616 21.1781C2.80836 20.9502 2.29566 20.6166 1.84807 20.1771C1.40048 19.7458 1.04241 19.2006 0.773852 18.5414C0.505298 17.8822 0.37102 17.0928 0.37102 16.1732H2.62932C2.62932 16.8568 2.73105 17.4265 2.9345 17.8822C3.13795 18.3298 3.40243 18.6879 3.72795 18.9564C4.04534 19.225 4.40748 19.4162 4.81438 19.5302C5.22128 19.6441 5.63225 19.701 6.04729 19.701C6.57626 19.701 7.05234 19.6359 7.47551 19.5057C7.89869 19.3755 8.25676 19.1843 8.54973 18.932C8.8427 18.6879 9.0665 18.3908 9.22112 18.0409C9.38388 17.6828 9.46526 17.28 9.46526 16.8324Z" fill="black"/>
</svg>
