<svg width="61" height="70" viewBox="0 0 61 70" fill="none" xmlns="http://www.w3.org/2000/svg">
<path d="M30.4569 0.384613C13.9942 0.384613 0.601196 12.56 0.601196 27.5261V63.4938C0.601196 66.8262 3.58305 69.537 7.24866 69.537C10.9143 69.537 13.8961 66.8262 13.8961 63.4938V60.5241C13.8961 58.0392 16.1198 56.0177 18.8532 56.0177C21.5865 56.0177 23.8103 58.0392 23.8103 60.5241V63.4938C23.8094 66.8262 26.7921 69.537 30.4569 69.537C34.1225 69.537 37.1043 66.8262 37.1043 63.4938V60.5241C37.1043 58.0392 39.328 56.0177 42.0606 56.0177C44.7939 56.0177 47.0176 58.0392 47.0176 60.5241V63.4938C47.0176 66.8262 49.9995 69.537 53.6651 69.537C57.3299 69.537 60.3117 66.8262 60.3117 63.4938V27.5261C60.3125 12.56 46.9196 0.384613 30.4569 0.384613ZM58.6222 63.4938C58.6222 65.9787 56.3984 68.0002 53.6659 68.0002C50.9326 68.0002 48.7089 65.9787 48.7089 63.4938V60.5241C48.7089 57.1917 45.727 54.481 42.0614 54.481C38.3966 54.481 35.4148 57.1917 35.4148 60.5241V63.4938C35.4139 65.9787 33.1902 68.0002 30.4569 68.0002C27.7235 68.0002 25.4998 65.9787 25.4998 63.4938V60.5241C25.4998 57.1917 22.518 54.481 18.8523 54.481C15.1876 54.481 12.2049 57.1917 12.2049 60.5241V63.4938C12.2049 65.9787 9.98117 68.0002 7.24781 68.0002C4.51445 68.0002 2.29074 65.9787 2.29074 63.4938V27.5261C2.29159 13.4075 14.9264 1.92133 30.4569 1.92133C45.9873 1.92133 58.6222 13.4075 58.6222 27.5261V63.4938Z" fill="#1B1B1B" stroke="#1B1B1B"/>
<path d="M18.6241 18.3819C12.8295 18.3819 8.11499 22.6678 8.11499 27.9357C8.11499 33.2035 12.8295 37.4895 18.6241 37.4895C24.4188 37.4895 29.1333 33.2035 29.1333 27.9357C29.1333 22.6678 24.4188 18.3819 18.6241 18.3819ZM22.6109 33.2712C20.9924 33.2712 19.6764 32.0741 19.6764 30.6034C19.6764 29.1328 20.9932 27.9357 22.6109 27.9357C24.2286 27.9357 25.5455 29.1328 25.5455 30.6034C25.5455 32.0741 24.2286 33.2712 22.6109 33.2712ZM27.1648 29.8958C26.793 27.9142 24.8955 26.399 22.6109 26.399C20.0601 26.399 17.986 28.2853 17.986 30.6034C17.986 32.9216 20.061 34.8079 22.6109 34.8079C22.8155 34.8079 23.0158 34.7917 23.2144 34.7679C21.8756 35.514 20.3069 35.9527 18.625 35.9527C13.7626 35.9527 9.80623 32.356 9.80623 27.9357C9.80623 23.5153 13.7626 19.9186 18.625 19.9186C23.4874 19.9186 27.4438 23.5153 27.4438 27.9357C27.4429 28.6126 27.3398 29.2672 27.1648 29.8958Z" fill="#1B1B1B" stroke="#1B1B1B"/>
<path d="M42.2895 18.3819C36.4957 18.3819 31.7804 22.6678 31.7804 27.9357C31.7804 33.2035 36.4957 37.4895 42.2895 37.4895C48.0834 37.4895 52.7987 33.2035 52.7987 27.9357C52.7987 22.6678 48.0834 18.3819 42.2895 18.3819ZM46.2763 33.2712C44.6586 33.2712 43.3418 32.0741 43.3418 30.6034C43.3418 29.1328 44.6586 27.9357 46.2763 27.9357C47.894 27.9357 49.2109 29.1328 49.2109 30.6034C49.2109 32.0741 47.894 33.2712 46.2763 33.2712ZM50.8302 29.8965C50.4584 27.9142 48.5609 26.399 46.2763 26.399C43.7255 26.399 41.6514 28.2853 41.6514 30.6034C41.6514 32.9216 43.7255 34.8079 46.2763 34.8079C46.4809 34.8079 46.6812 34.7917 46.8798 34.7679C45.541 35.514 43.9723 35.9527 42.2904 35.9527C37.428 35.9527 33.4716 32.356 33.4716 27.9357C33.4716 23.5153 37.428 19.9186 42.2904 19.9186C47.1528 19.9186 51.1092 23.5153 51.1092 27.9357C51.1083 28.6134 51.0052 29.2672 50.8302 29.8965Z" fill="#1B1B1B" stroke="#1B1B1B"/>
</svg>
